<?xml version="1.0" encoding="UTF-8"?>
<svg width="155px" height="180px" viewBox="0 0 155 180" version="1.1" xmlns="http://www.w3.org/2000/svg" xmlns:xlink="http://www.w3.org/1999/xlink">
    <!-- Generator: Sketch 48.1 (47250) - http://www.bohemiancoding.com/sketch -->
    <title>登录注册页羚羊@2x</title>
    <desc>Created with Sketch.</desc>
    <defs></defs>
    <g id="1.0-登录初始状态" stroke="none" stroke-width="1" fill="none" fill-rule="evenodd" transform="translate(-110.000000, -44.000000)">
        <g id="Group" transform="translate(110.000000, 44.000000)">
            <g id="Page-1">
                <path d="M124.052284,156.307634 C124.003967,160.587917 123.811251,164.863202 123.561887,169.138486 C123.533008,169.651654 123.038168,170.31866 123.602985,170.682432 C124.055061,170.974004 124.69541,170.666326 125.240789,170.561915 C128.818521,169.881579 132.399586,169.092945 135.694632,167.55622 C139.813855,165.634064 143.374371,162.831636 146.360072,159.397191 C148.43218,157.010185 149.881156,154.214422 150.80197,151.178181 C151.948266,147.398848 151.511185,143.600076 150.895273,139.794639 C150.35156,136.442945 149.056423,133.290631 148.385529,129.972259 C148.045083,128.292802 147.979549,128.278918 146.273989,128.51884 C143.261074,128.940371 140.255935,129.417994 137.240243,129.823974 C136.668206,129.902282 136.592675,130.186079 136.681535,130.606499 C136.992545,132.07769 136.798164,133.564431 136.828154,135.044508 C136.958112,141.450771 131.67482,147.822044 124.562675,147.341089 C123.902888,147.295548 123.674073,147.486042 123.723502,148.172487 C123.916773,150.879945 124.094493,153.590179 124.052284,156.307634 M116.525829,63.7370057 C116.020436,64.0330211 115.838828,64.5928401 115.492274,65.0171474 C113.893346,66.9731817 112.072824,68.7270592 110.42058,70.6319989 C109.774122,71.276235 109.023809,71.8249465 108.584507,72.655789 C107.063888,73.9575904 105.638793,75.3649132 104.08374,76.6322813 C102.186575,78.1778927 100.245536,79.6862939 98.6438319,81.5634649 C97.8551979,82.2543526 97.1637548,83.0296575 96.6167094,83.9288113 C96.4534289,84.077652 96.264601,84.2081654 96.1307554,84.3792212 C94.7911885,86.0914455 93.5338172,87.860318 92.5441372,89.8002464 C91.5605662,91.7274012 90.4231562,93.602906 90.2221101,95.8355175 C90.2071149,96.0126825 90.0854876,96.1354206 89.92665,96.2165055 C85.2065093,96.5036349 80.4852579,96.3186947 75.7651172,96.2476065 C75.6662602,96.1187593 75.4913168,95.997132 75.4785431,95.8599541 C75.2680556,93.658999 74.1895154,91.7846049 73.185951,89.898548 C72.3506655,88.3312769 71.5142692,86.7517875 70.2741146,85.4427663 C69.8142632,84.6230313 69.2077926,83.9160376 68.5546704,83.2484757 C66.0576999,80.0939399 62.8931674,77.6686129 59.7813956,75.1855268 C58.9077892,74.2591596 58.0219644,73.3472322 56.9739699,72.6135805 C56.8667823,72.1859409 56.5629916,71.8977008 56.2758623,71.592244 C55.3939251,70.6625445 54.4864407,69.7589478 53.6189434,68.8148086 C52.7603321,67.8806661 51.956703,66.8815447 50.9464741,66.0934661 C50.6165807,65.3675897 50.0334359,64.8310964 49.5524803,64.2179613 C47.8613603,61.7126602 46.8261395,58.9307817 45.9675281,56.0506017 C45.2816388,53.7507897 44.4019232,51.5104029 43.6199538,49.238915 C43.3861405,48.5596901 43.0268122,48.2031387 42.2181847,48.2464581 C41.0641134,48.3097709 40.2593735,48.8884727 39.6423508,49.7554147 C37.6435525,52.5722818 36.7033009,55.6601724 37.2447925,59.1473784 C37.8073884,62.7762052 39.428531,65.9124135 41.580613,68.8214731 C42.0604579,69.6206591 42.530306,70.4281759 43.2972803,71.00299 C43.3683684,71.1501647 43.41502,71.3184436 43.5172092,71.4389602 C44.8701051,73.0223372 46.1963431,74.6301508 47.605332,76.1629885 C48.290666,76.9088585 48.9093549,77.7563623 49.8501618,78.2395394 C50.5027286,79.3153028 51.4829673,80.0806109 52.3865641,80.9186733 C53.383464,82.3037811 54.720254,83.3823213 55.7871314,84.7063377 C56.6396335,85.7654397 57.5487841,86.779001 58.433498,87.8125557 C58.9366687,88.5911929 59.457056,89.3576118 60.1262841,90.010734 C60.8588251,91.2114569 61.6269101,92.3927417 62.3155764,93.6195673 C62.9203808,94.6942198 63.6018272,95.7577649 63.6279299,97.060677 C63.2336129,97.0867797 62.9764738,97.3555817 62.6998965,97.5888396 C61.7002197,98.4407864 60.7410854,99.3460493 59.6925355,100.133017 C57.7748221,101.571441 55.5238831,102.250666 53.2218496,102.78827 C50.684892,103.380856 48.2279085,104.108399 46.0075152,105.602915 C42.3164863,108.090445 43.1806513,114.276223 46.8644604,115.692987 C48.9260161,116.487174 51.0536616,116.850946 53.2229603,117.070319 C55.0040512,117.251372 56.7329367,116.900374 58.4396072,116.469402 C59.1288288,116.293904 59.3709727,116.546044 59.4270657,117.161956 C59.4448378,117.357449 59.4515023,117.553496 59.4542792,117.748989 C59.5292549,124.324085 59.421512,130.899182 59.7636236,137.472612 C59.9235719,140.539954 59.8158289,143.621735 60.1562744,146.684079 C60.2712373,150.330678 60.693323,153.932846 61.8440621,157.4095 C62.5427251,159.517708 63.7417819,161.342118 65.351817,162.868846 C66.8396693,164.280057 68.6340892,165.129227 70.5901235,165.747916 C73.6008169,166.700386 76.6453881,167.305745 79.8115868,167.215219 C80.7107405,167.512345 81.6321093,167.324628 82.5440367,167.327405 C85.8568546,167.46014 89.1202441,166.966966 92.3808566,166.511558 C97.7374582,165.760134 101.56511,162.936047 103.64888,157.896565 C104.929578,154.800344 104.981783,151.469754 105.349997,148.203588 C105.749868,145.547779 105.952025,142.864758 106.012561,140.190067 C106.116416,135.544902 106.139742,130.904736 106.52073,126.267901 C106.758431,123.37106 106.800084,120.455336 106.857288,117.547943 C106.873394,116.769305 107.169409,116.641569 107.809758,116.766529 C111.241981,117.437423 114.598674,117.034775 117.913713,116.05176 C121.861881,114.882693 122.633854,111.023941 121.725259,108.255947 C121.046034,106.184394 119.253836,105.209709 117.463859,104.325551 C115.645558,103.429174 113.638984,103.093727 111.689614,102.599442 C109.365366,102.007967 107.11165,101.226552 105.307789,99.571532 C104.305335,98.6540508 103.19014,97.9303958 102.034402,97.246728 C101.837244,97.1028856 101.855016,96.9268314 101.941099,96.7285622 C102.404283,95.6550203 102.780272,94.5459344 103.403404,93.54237 C104.092071,92.4338395 104.735751,91.2986509 105.39776,90.1751253 C106.206942,89.3753838 106.891721,88.4817838 107.445986,87.48655 C107.634259,87.4621134 107.712567,87.3099404 107.819199,87.1799824 C110.157332,84.3203514 112.662633,81.6140041 115.277343,79.0065137 C115.751079,78.532778 116.197046,78.0329396 116.657453,77.5458748 C117.330568,76.9349612 118.082548,76.3956911 118.490194,75.5426335 C119.80699,74.4951944 120.778898,73.1306355 121.834668,71.85216 C122.764367,70.7269682 123.79459,69.6589801 124.405503,68.2971981 C125.02808,67.7451544 125.385187,67.0209441 125.719523,66.2806278 C126.32766,65.475888 126.743636,64.5678482 127.144618,63.6464794 C128.850178,59.7327447 129.222835,55.7962395 127.329003,51.8397408 C126.726975,50.5790373 126.037198,49.3455472 124.774828,48.5974557 C123.47025,47.8238169 122.42059,48.2031387 121.955184,49.6087954 C120.921074,52.7327855 119.697581,55.7951288 118.78843,58.9613274 C118.534068,59.8465968 118.002573,60.6257893 117.816522,61.5354952 C117.281695,62.2080556 116.861276,62.9483718 116.525829,63.7370057 M143.583748,119.35347 C144.193551,118.544843 144.959414,118.087768 146.010741,118.269376 C147.103721,118.623706 147.620776,119.423447 147.838483,120.511984 C147.986769,121.24397 148.230023,121.95985 148.453285,122.675729 C149.012548,124.477369 149.46518,126.314553 150.27825,128.030109 C150.313239,128.192835 150.327679,128.365001 150.38877,128.517174 C151.822195,132.016043 152.980154,135.591554 153.60162,139.335343 C154.154775,142.659824 154.423021,145.988748 154.005934,149.343775 C153.496654,153.441339 151.986587,157.169022 149.745645,160.615686 C148.014538,163.277048 145.688067,165.366928 143.256631,167.353508 C141.501643,168.786933 139.700559,170.158157 137.65622,171.171718 C135.006521,172.486848 132.124675,173.108314 129.307807,173.911943 C127.425083,174.448436 125.465161,174.570619 123.524122,174.763334 C123.213111,174.793325 122.937645,174.746673 122.871,175.203748 C122.556101,177.353608 122.203993,179.49736 121.864658,181.642222 L118.828418,181.642222 C119.839757,177.087583 120.598401,172.499066 121.089909,167.850014 C121.568643,163.308149 121.708598,158.759064 121.829114,154.204981 C121.876876,152.417225 121.759137,150.623916 121.689159,148.834495 C121.564755,145.67385 121.113234,142.552637 120.607842,139.432534 C119.583729,133.093472 117.048993,127.205931 115.235135,121.102904 C115.136278,120.77079 115.022426,120.622504 114.59312,120.681929 C113.070834,120.890751 111.540218,121.086799 110.000161,120.808555 C109.474775,120.714141 109.402021,120.952398 109.478662,121.434464 C109.655272,122.563543 109.878533,123.704286 109.885198,124.840585 C109.915188,129.461869 110.1179,134.076488 110.230086,138.693884 C110.309505,141.970047 110.317836,145.249543 110.068472,148.520152 C109.882421,150.970471 109.716919,153.426899 109.189867,155.836675 C108.595615,158.551353 107.404333,161.004449 105.865941,163.300374 C103.014641,166.845894 99.3058401,168.987979 94.9028191,169.988767 C92.3347604,170.573578 89.7233824,170.942903 87.0997861,171.018989 C82.0086543,171.166164 76.9147455,171.217814 71.875819,170.226468 C67.6188619,169.388961 63.8417496,167.672294 60.8299455,164.456666 C59.7475177,163.301484 59.013866,161.911934 58.1358165,160.620129 C57.7676022,159.53548 57.253324,158.508589 56.9245414,157.405613 C55.7116002,153.335262 55.6499535,149.128844 55.4639025,144.948529 C55.2750747,140.721562 55.5544288,136.492374 55.6282938,132.263741 C55.638846,131.602843 55.4539058,131.466221 54.8779808,131.750573 C53.6406031,132.361487 52.3182528,132.725258 50.9875719,133.060705 C46.5989907,134.164237 42.1498735,135.015629 37.8701459,136.555687 C29.1340813,139.703002 22.0735861,145.129026 16.316003,152.307816 C11.7402601,158.011528 8.49353192,164.426676 6.60192123,171.501056 C5.71498575,174.824981 5.06297431,178.195003 4.959119,181.650552 C3.39018177,181.647775 1.82013379,181.644999 0.251196569,181.642222 C0.408923356,179.810592 0.622187743,177.987292 0.900431124,176.16788 C1.74904567,170.601902 3.39573553,165.280844 5.85716201,160.2297 C8.98392894,153.809553 13.1409184,148.135276 18.372005,143.247967 C20.6057273,141.160864 22.9971764,139.290358 25.5213604,137.575357 C27.6545596,136.126936 29.9554824,134.977308 32.2158628,133.753259 C32.4035799,133.70272 32.6018491,133.67384 32.7767925,133.597199 C36.8904626,131.772233 41.1835192,130.54874 45.5859848,129.653473 C48.7344114,129.013125 51.9267127,128.585485 55.0351522,127.738537 C55.5527627,127.597472 55.7882421,127.415308 55.7749131,126.845492 C55.730483,125.023859 55.8582195,123.211112 56.2292107,121.422246 C56.3291783,120.94129 56.1725623,120.733579 55.6666148,120.803001 C53.0380201,121.160664 50.4782921,120.680263 47.9446667,120.07657 C44.0003863,119.137429 41.1063219,116.99812 40.2088343,112.826691 C39.4724057,109.415016 39.9033775,106.242709 42.5164216,103.650769 C44.4768989,101.706953 46.8877862,100.555658 49.4913889,99.7631367 C51.470749,99.1611091 53.531194,98.8417679 55.4622364,98.0725721 C55.9648517,97.8726367 56.559104,97.7948841 56.8562302,97.2389527 C58.0319612,97.1428727 58.8700236,96.3270253 59.833601,95.7944197 C60.1868201,95.598372 59.8047214,95.2357114 59.6758742,94.9924568 C58.5123614,92.8076075 56.9723038,90.8765652 55.5572057,88.8599949 C53.457329,85.8659628 50.9681337,83.2101547 48.4422836,80.5843369 C44.8106799,76.8077801 41.1957375,73.0156727 38.3072268,68.6082087 C36.4250576,65.735804 35.0766046,62.6406935 34.6345253,59.2234649 C34.2279901,56.067263 34.8277962,53.0337993 36.1551448,50.1480655 C36.5533494,49.2827897 37.0509663,48.4669423 37.4952671,47.6266584 C38.0800781,46.5214602 39.0847533,46.3859484 40.1210849,46.2959775 C41.9077295,46.1382507 43.5844097,46.5697779 45.0983647,47.5005881 C45.9280964,48.0109786 46.3673989,48.9106878 46.8216964,49.7454179 C47.9502205,51.8180812 48.8410436,53.9945998 49.5202685,56.253314 C50.3799905,59.108502 51.9267127,61.5210554 54.0115943,63.6403703 C56.4285907,66.0940215 58.7328457,68.6598587 61.2325931,71.0335357 C63.0642232,72.7735288 65.1407741,74.2175064 67.0384939,75.8753038 C72.0335458,80.2438915 76.1716524,85.2622691 78.7752551,91.4341627 C79.3350742,92.7626221 79.320079,92.7504038 80.7968238,92.7215243 C82.4785024,92.6898678 84.1607363,92.6748727 85.8413041,92.6981985 C86.321149,92.7054183 86.5121983,92.5382502 86.6777004,92.1039461 C88.1766602,88.194099 90.4026073,84.7324404 93.0739659,81.5112595 C95.9769163,78.008503 99.4774513,75.179973 102.973543,72.3297833 C105.828176,70.004424 108.224623,67.2086611 110.773799,64.5722912 C111.88233,63.4254398 113.010298,62.2930281 113.930001,60.9751208 C115.052971,59.3689734 115.748302,57.5762196 116.339778,55.729039 C117.101754,53.3481421 118.065886,51.0566607 119.361023,48.9090216 C120.989941,46.2043405 123.516902,45.6456322 126.402636,45.9027713 C126.783068,45.9372046 126.996888,46.2071174 127.21404,46.4531489 C129.106206,48.584682 130.148091,51.1405224 130.771223,53.8718617 C131.829215,58.5248019 130.654594,62.7984203 128.420317,66.8637726 C126.269901,70.7802843 123.294196,74.0614457 120.319047,77.3426072 C117.422205,80.5376854 114.217686,83.4550755 111.601865,86.9017391 C109.671378,89.443695 107.726451,91.9806527 106.1303,94.7569773 C105.529384,95.8016396 105.587143,95.8888336 106.81619,96.2337221 C106.892832,96.4297699 107.056668,96.5336252 107.232166,96.6280391 C108.882189,97.5305251 110.574975,98.3202698 112.413825,98.7773443 C115.07352,99.4376863 117.750988,100.040825 120.174094,101.416491 C123.723502,103.431951 125.897243,106.221604 125.776727,110.529656 C125.655099,114.963778 123.369172,118.217726 119.157756,119.637267 C118.409664,119.890519 117.651576,120.113224 116.864053,120.359811 C118.893952,123.597653 120.078569,127.090969 121.088243,130.649818 C122.26675,134.801809 122.873776,139.060432 123.368061,143.338494 C123.401939,143.63562 123.334738,143.948852 123.800144,144.008277 C125.207466,144.188774 126.609235,144.170447 127.928809,143.639508 C131.533755,142.189976 133.333173,139.335343 133.597532,135.604327 C133.880774,131.617838 134.086263,127.623574 134.283421,123.631531 C134.351732,122.226985 135.103156,121.423356 136.16448,120.779676 C136.74096,120.430899 137.32466,120.500877 137.852267,121.001826 C138.485951,121.60552 138.989677,122.309181 139.519506,122.996737 C140.147636,123.806475 141.119544,123.848128 141.631601,123.056717 C142.390245,121.882097 143.040035,120.644719 143.583748,119.35347" id="Fill-4" fill="#9D6779"></path>
                <path d="M4.95884131,181.650441 C5.06269662,178.194892 5.71470806,174.82487 6.60164355,171.5015 C8.49325423,164.426565 11.7405378,158.011972 16.3157253,152.307705 C22.0733084,145.128915 29.1338036,139.702891 37.8704236,136.555575 C42.1501511,135.015518 46.5992684,134.164126 50.9878496,133.060594 C52.3179751,132.725147 53.6403254,132.361376 54.8782585,131.750462 C55.4541834,131.46611 55.6391237,131.602732 55.6280161,132.26363 C55.5547065,136.492263 55.2753524,140.721451 55.4636248,144.948418 C55.6496758,149.128733 55.7118779,153.335706 56.9242637,157.405502 C57.2530463,158.508478 57.7678799,159.535924 58.1360942,160.620018 C58.0194652,160.691106 57.9117223,160.775523 57.7884288,160.830505 C54.73275,162.191177 51.7326088,163.661257 48.885196,165.419022 C44.9670183,167.835463 41.6952982,170.994442 38.7906817,174.533853 C37.0273628,176.681492 35.602268,179.053503 34.5648256,181.643221 C31.4630506,181.651552 28.3596095,181.668213 25.2561683,181.668213 C18.4905778,181.666547 11.7244319,181.657106 4.95884131,181.650441" id="Fill-8" fill="#EDC77F"></path>
                <path d="M34.5646035,181.643388 C35.6020458,179.05367 37.0276961,176.681103 38.7904595,174.533464 C41.6956314,170.994608 44.9667961,167.83563 48.8849739,165.419189 C51.7323867,163.661424 54.7325279,162.191343 57.7882067,160.830117 C57.9115001,160.77569 58.0192431,160.690717 58.135872,160.620185 C59.0133661,161.911989 59.7475732,163.30154 60.8300011,164.456722 C63.8418052,167.672349 67.6189174,169.389016 71.8758745,170.226523 C76.914801,171.21787 82.0087098,171.16622 87.0998417,171.019045 C89.7234379,170.942403 92.3348159,170.573078 94.9028746,169.988822 C99.3058956,168.988035 103.014697,166.845394 105.865997,163.300429 C111.212046,168.251606 114.282165,174.270771 114.464328,181.642277 C114.239956,181.651719 114.016695,181.66838 113.793434,181.66838 C87.6074553,181.669491 61.4214765,181.669491 35.2354977,181.66838 C35.0122365,181.66838 34.7889754,181.651719 34.5646035,181.643388" id="Fill-12" fill="#EFE3BB"></path>
                <path d="M114.464439,181.642277 C114.282276,174.270771 111.212158,168.251606 105.866108,163.300429 C107.4045,161.004505 108.595781,158.551409 109.190034,155.836731 C109.71653,153.426954 109.882587,150.969971 110.068638,148.519652 C110.317447,145.249598 110.309672,141.969547 110.230253,138.69394 C110.118067,134.076544 109.915355,129.461924 109.885364,124.840641 C109.878144,123.704341 109.655439,122.563599 109.478274,121.434519 C109.402187,120.952453 109.474941,120.714197 110.000327,120.808611 C111.539829,121.086854 113.070446,120.890806 114.592731,120.68143 C115.022592,120.62256 115.136444,120.770845 115.235301,121.10296 C117.048604,127.205432 119.583896,133.093528 120.608009,139.43259 C121.113401,142.552692 121.564922,145.67335 121.689326,148.83455 C121.759303,150.623416 121.877043,152.417281 121.829281,154.205036 C121.708764,158.75912 121.568809,163.308204 121.090075,167.850069 C120.598567,172.499122 119.839924,177.087639 118.828029,181.642277 L114.464439,181.642277 Z" id="Fill-18" fill="#EDC77F"></path>
                <path d="M82.0714673,42.3042124 C87.6296704,42.6185553 91.8971796,40.2137772 93.6593877,35.9923641 C95.0256127,32.7173118 95.1533492,29.345624 94.0003886,25.9756024 C92.8146608,22.5133884 90.3998859,20.3790784 86.8188214,19.5965536 C84.8694516,19.1711355 82.921748,19.2872091 80.9818196,19.6865245 C75.6457669,20.7872797 71.2738469,23.7807564 70.8112187,30.0004123 C70.5346414,33.7047703 71.6470596,38.1044591 75.6007814,40.2987497 C77.7895183,41.5139124 80.0399018,42.4536086 82.0714673,42.3042124 M49.029927,36.5016439 C49.029927,17.679951 61.5092259,3.37457571 78.3204577,0.797075648 C95.8225773,-1.8870566 114.263282,10.0085421 117.185671,29.8071415 C117.513898,32.0358654 117.677179,34.2851383 117.456694,36.5133068 C117.267866,38.4276879 116.733595,40.3037481 116.409255,42.2081324 C116.262081,43.0761851 115.990502,43.8781481 115.611735,44.6684481 C112.44387,51.2624275 108.375186,57.2210567 103.34459,62.5504449 C100.324455,65.7482999 97.5881176,69.2055156 94.8984316,72.6888339 C93.8865365,73.9984105 93.0612478,75.4534957 92.4003503,76.9635631 C91.463431,79.1034268 90.2343839,81.08001 89.1502899,83.1349013 C88.4688435,84.4255951 87.4141845,85.4863633 86.1823605,86.2916585 C83.8275662,87.8278285 80.7563369,87.3291009 78.8874966,85.2425532 C78.2043841,84.480022 77.7023242,83.6563993 77.2735739,82.7311429 C74.3306365,76.3615355 70.2647287,70.7533485 65.4846074,65.6522199 C61.8802171,61.8084625 58.2947096,57.9669267 55.1268448,53.7288523 C50.864334,48.0279176 49.1448898,41.6027725 49.029927,36.5016439" id="Fill-20" fill="#FE5800"></path>
                <path d="M102.720181,129.352349 C102.685747,128.163844 102.800155,127.141397 102.299761,126.26668 C101.318967,124.546125 98.7248057,123.590323 96.8009832,124.106822 C95.6008156,124.428385 94.6844452,125.102056 94.0307677,126.136722 C92.8339324,128.032775 91.9492184,130.118768 91.8575813,132.323055 C91.7759411,134.331295 92.2341263,136.366748 92.5107035,138.381652 C92.6462153,139.368555 92.989993,139.646243 94.0685332,139.589039 C97.1430948,139.427425 99.6250702,138.180606 101.173459,135.420942 C102.264772,133.478237 102.691301,131.353924 102.720181,129.352349 M62.9846934,128.576488 C62.9247128,130.439219 63.2734889,132.073136 63.8444154,133.6604 C65.1917576,137.406967 68.2907558,139.133076 71.6374516,139.256369 C72.7270993,139.295801 73.0258916,138.995898 73.2130533,137.947903 C73.2758108,137.590241 73.3119103,137.229247 73.3530081,136.868808 C73.534616,135.234336 73.9567018,133.580426 73.8345191,131.96817 C73.6640186,129.703902 72.83151,127.557929 71.5513683,125.643548 C70.3934093,123.911885 68.2413273,123.149354 66.2236463,123.846351 C64.4397785,124.463374 62.8369633,125.560241 62.9830272,128.150515 C62.9946901,128.346007 62.9846934,128.542055 62.9846934,128.576488 M102.034847,97.2466169 C103.190029,97.9302848 104.305224,98.6544951 105.307678,99.5714209 C107.111539,101.226441 109.365255,102.008411 111.689503,102.599331 C113.638873,103.093616 115.645447,103.429063 117.463748,104.32544 C119.25428,105.209598 121.045923,106.184283 121.725148,108.255836 C122.633743,111.02383 121.86177,114.882582 117.913602,116.051649 C114.598563,117.034664 111.24187,117.437312 107.809646,116.766417 C107.169298,116.641458 106.873838,116.769194 106.857177,117.547832 C106.799973,120.455225 106.75832,123.370949 106.520619,126.26779 C106.139631,130.904625 106.116305,135.544791 106.01245,140.189956 C105.951914,142.864647 105.749757,145.547668 105.349886,148.203476 C103.872586,147.325982 102.285321,146.737839 100.616416,146.333525 C95.2736992,145.041166 89.8376788,144.395263 84.365559,144.005389 C81.0255276,143.767133 77.6716119,143.826003 74.3249161,143.706597 C72.7587558,143.650504 71.1587175,143.787126 69.5758958,143.96929 C66.2786285,144.348612 63.0996562,145.093371 60.1561634,146.683968 C59.8157179,143.621624 59.9234608,140.540398 59.7635125,137.472501 C59.4214009,130.899071 59.5291438,124.323974 59.4541681,117.748878 C59.4513912,117.553385 59.4447267,117.357338 59.4269547,117.161845 C59.3708617,116.545933 59.1287177,116.293793 58.4400515,116.469291 C56.7328256,116.900263 55.0039401,117.251261 53.2228493,117.070208 C51.0535506,116.850835 48.9259051,116.487063 46.8643493,115.692876 C43.1805403,114.276111 42.3163752,108.090333 46.0074041,105.602804 C48.2277974,104.108287 50.6853363,103.380745 53.2217385,102.788159 C55.5243274,102.250555 57.774711,101.571885 59.6924244,100.132906 C60.7409743,99.3459382 61.700664,98.4406753 62.6997855,97.5892839 C62.9763627,97.3554706 63.2335018,97.0866686 63.6278188,97.0605659 C64.0865594,98.4340108 64.2098528,99.9029804 64.8518675,101.226441 C65.6155095,102.803154 66.6901621,104.094403 68.2196676,104.963567 C70.979331,106.530838 75.31293,103.86059 75.6128331,100.428366 C75.7344604,99.0377045 75.8755259,97.6481538 75.7650061,96.2480508 C80.4851468,96.319139 85.2063982,96.5040792 89.9265389,96.2163944 C89.7432649,97.4837625 89.2689738,98.7172526 89.4361419,100.024052 C89.6088639,101.375838 89.8726675,102.648759 91.2638844,103.389076 C94.430083,105.074086 98.4426747,103.60956 100.16434,101.434152 C101.144579,100.196774 101.481692,98.6733779 102.034847,97.2466169" id="Fill-24" fill="#EDC77F"></path>
                <path d="M60.1563855,146.683968 C63.0998784,145.093371 66.2782953,144.348612 69.576118,143.96929 C71.1589396,143.787126 72.7584225,143.650504 74.3251382,143.706597 C77.6718341,143.826003 81.0257498,143.767133 84.3657811,144.005389 C89.8373456,144.395263 95.2733659,145.041166 100.616639,146.333525 C102.284988,146.737839 103.872808,147.325982 105.350108,148.203476 C104.981894,151.469643 104.929689,154.800233 103.648992,157.896454 C101.565221,162.935936 97.7375693,165.760023 92.3804123,166.511447 C89.1197998,166.966855 85.8564103,167.460029 82.5441478,167.327294 C82.5413709,166.179887 82.5474801,165.030259 82.5274865,163.881741 C82.520822,163.504086 82.6396725,163.264163 82.9734535,163.064228 C83.9414738,162.48386 84.9478152,162.015678 86.068564,161.819075 C86.7844436,161.691338 87.5031002,161.577486 88.1839912,161.307018 C89.2364287,160.889375 89.8412332,159.944681 89.7407101,158.878359 C89.6485177,157.902008 88.8343365,156.994523 87.8157769,156.801808 C86.1540919,156.48802 84.4041021,156.441369 82.9956685,157.344966 C81.0574062,158.589563 79.5140163,158.419618 77.8262286,156.960645 C76.8887539,156.151463 75.6402686,155.836564 74.3573501,155.934866 C73.2132755,156.022615 72.417977,156.903997 72.6667855,157.877571 C73.0111186,159.222137 73.6842343,160.377319 74.9521578,161.060431 C76.3811402,161.829627 77.8240071,162.578274 79.2857568,163.280824 C79.6884044,163.475206 79.8183624,163.68847 79.8100317,164.103336 C79.7922597,165.139668 79.808921,166.177666 79.8116978,167.215108 C76.6449438,167.305634 73.6009279,166.700274 70.5902346,165.747805 C68.6342003,165.129116 66.8397804,164.280501 65.3513727,162.869291 C63.741893,161.342562 62.5428362,159.517597 61.8441732,157.409389 C60.6934341,153.932735 60.2713483,150.330567 60.1563855,146.683968" id="Fill-26" fill="#EFE3BB"></path>
                <path d="M124.052284,156.307634 C124.094493,153.590179 123.916773,150.879945 123.723502,148.172487 C123.674073,147.486042 123.902888,147.295548 124.562675,147.341089 C131.67482,147.822044 136.958112,141.450771 136.828154,135.044508 C136.798164,133.564431 136.992545,132.07769 136.681535,130.606499 C136.592675,130.186079 136.668206,129.902282 137.240243,129.823974 C140.255935,129.417994 143.261074,128.940371 146.273989,128.51884 C147.979549,128.278918 148.045083,128.292802 148.385529,129.972259 C149.056423,133.290631 150.35156,136.442945 150.895273,139.794639 C151.511185,143.600076 151.948266,147.398848 150.80197,151.178181 C149.881156,154.214422 148.43218,157.010185 146.360072,159.397191 C143.374371,162.831636 139.813855,165.634064 135.694632,167.55622 C132.399586,169.092945 128.818521,169.881579 125.240789,170.561915 C124.69541,170.666326 124.055061,170.974004 123.602985,170.682432 C123.038168,170.31866 123.533008,169.651654 123.561887,169.138486 C123.811251,164.863202 124.003967,160.587917 124.052284,156.307634" id="Fill-28" fill="#EDC77F"></path>
                <path d="M102.034625,97.2468391 C101.48147,98.6730446 101.144357,100.196996 100.164674,101.434374 C98.4424525,103.609782 94.4304162,105.074309 91.2636622,103.389298 C89.8730007,102.648981 89.6086417,101.37606 89.4359198,100.024274 C89.269307,98.7169193 89.7430427,97.4839846 89.9263168,96.2166166 C90.0851543,96.1355317 90.2067817,96.0122382 90.2217768,95.8356286 C90.4233783,93.6024617 91.5607884,91.7275123 92.5438039,89.8003575 C93.533484,87.8604291 94.7914106,86.0915565 96.1304222,84.3793323 C96.2642678,84.2077211 96.4530957,84.0777631 96.617487,83.9289224 C98.639611,84.9885798 100.536775,86.2459511 102.376736,87.5888503 C103.446946,88.371375 104.586022,89.0855886 105.397982,90.1752363 C104.735418,91.298762 104.091737,92.4339506 103.403626,93.5424811 C102.780495,94.5460455 102.40395,95.6551314 101.941321,96.7281179 C101.855238,96.9269425 101.837466,97.1029967 102.034625,97.2468391" id="Fill-30" fill="#7594B1"></path>
                <path d="M75.764895,96.2478287 C75.8754148,97.6479316 75.7343493,99.0374824 75.6132774,100.428144 C75.3133743,103.860368 70.9792199,106.531171 68.2195566,104.963344 C66.690051,104.094181 65.6159538,102.803487 64.8523118,101.226775 C64.2097418,99.9027582 64.0870037,98.434344 63.6277077,97.0608992 C63.6021604,95.7574317 62.9201587,94.6938866 62.3153542,93.6197894 C61.6266879,92.3929638 60.8586029,91.211679 60.1266173,90.0109561 C60.3193328,89.7454864 60.6358971,89.675509 60.8997008,89.5272236 C63.8920667,87.8627617 67.1382395,86.7758908 70.2755585,85.4429884 C71.5146024,86.7514543 72.3509987,88.3309437 73.1857288,89.8982148 C74.1892933,91.7848271 75.2678335,93.6592211 75.478321,95.8601762 C75.4910946,95.9973541 75.6660381,96.1189815 75.764895,96.2478287" id="Fill-32" fill="#7594B1"></path>
                <path d="M41.5789469,68.8212509 C39.428531,65.9127468 37.8073884,62.7759831 37.2447925,59.1471562 C36.7033009,55.6605056 37.6435525,52.5720596 39.6423508,49.7551925 C40.2593735,48.8882506 41.0641134,48.3095488 42.2181847,48.2462359 C43.0268122,48.2029166 43.3861405,48.5600234 43.6199538,49.2386928 C44.4019232,51.5101807 45.2816388,53.7505675 45.9675281,56.050935 C46.8261395,58.9305596 47.8613603,61.712438 49.5524803,64.2177392 C46.7661588,65.5306481 44.1075739,67.0623751 41.5789469,68.8212509" id="Fill-34" fill="#7494B1"></path>
                <path d="M98.6438319,81.5634093 C100.245536,79.6862384 102.186575,78.1778372 104.08374,76.6322257 C105.638793,75.3648577 107.063888,73.9575349 108.584507,72.6557335 C111.491345,73.9286553 114.130492,75.6425457 116.657453,77.5458193 C116.197046,78.032884 115.751079,78.5327224 115.277343,79.0064582 C112.662633,81.6139485 110.157332,84.3202958 107.819199,87.1799269 C107.712567,87.3098849 107.634259,87.4620579 107.444875,87.4864945 C104.741305,85.1700211 101.797812,83.2117653 98.6438319,81.5634093" id="Fill-36" fill="#7494B1"></path>
                <path d="M117.816745,61.5357174 C118.002796,60.6254561 118.53429,59.8468189 118.788653,58.9609942 C119.697803,55.7947956 120.921296,52.7324522 121.954851,49.6084622 C122.420256,48.2028055 123.470472,47.8240391 124.774495,48.5971225 C126.03742,49.3457693 126.727197,50.5787041 127.329225,51.839963 C129.222502,55.7959063 128.849844,59.7329668 127.14484,63.6467016 C126.743303,64.5680704 126.327327,65.4761101 125.71919,66.28085 C124.509581,65.5022128 123.284421,64.7446799 122.09314,63.9371632 C120.732469,63.0157944 119.180193,62.4448679 117.816745,61.5357174" id="Fill-38" fill="#7494B1"></path>
                <path d="M59.7815622,75.1853046 C62.893334,77.6689461 66.0578665,80.0942732 68.5548371,83.2488089 C65.0904015,84.5683823 61.7414842,86.1478717 58.4331093,87.8123336 C57.5483953,86.7787788 56.6398001,85.765773 55.787298,84.7066709 C54.7204207,83.3826545 53.3830752,82.3035589 52.3867307,80.9184512 C53.0753969,80.1775796 53.9240115,79.6333111 54.7176438,79.0279512 C56.4026546,77.7422558 57.9993606,76.3410421 59.7815622,75.1853046" id="Fill-40" fill="#7494B1"></path>
                <path d="M79.8114757,167.214997 C79.8086988,166.177555 79.7925929,165.140112 79.8098096,164.103225 C79.8186956,163.688359 79.6881822,163.47565 79.28609,163.280713 C77.823785,162.578163 76.3809181,161.830071 74.9519356,161.06032 C73.6845676,160.377208 73.0108965,159.222025 72.6671187,157.878016 C72.4177549,156.904441 73.2130533,156.02306 74.3576833,155.934755 C75.6400465,155.837009 76.8885318,156.151351 77.8265618,156.960534 C79.5143495,158.419507 81.0571841,158.589452 82.9954464,157.34541 C84.4044353,156.441813 86.1538697,156.488465 87.8155547,156.801697 C88.8341143,156.994968 89.6482956,157.901897 89.740488,158.878248 C89.8415664,159.94457 89.2367619,160.889264 88.183769,161.306907 C87.5034334,161.57793 86.7847769,161.691783 86.0688972,161.818964 C84.947593,162.016122 83.9418071,162.483749 82.9732313,163.064117 C82.6400057,163.264607 82.5205999,163.503974 82.5278198,163.88163 C82.5478133,165.030148 82.5411488,166.180331 82.5439257,167.327183 C81.6319983,167.324406 80.7106295,167.512123 79.8114757,167.214997" id="Fill-42" fill="#7594B1"></path>
                <path d="M49.8498841,78.2393173 C48.9096326,77.7561402 48.2903883,76.9086364 47.6050543,76.1633218 C46.1966207,74.6299286 44.8698275,73.0221151 43.5174869,71.4387381 C43.4147423,71.3182215 43.3680907,71.1499425 43.2970026,71.0022125 C43.3819751,70.8922481 43.4463987,70.7556256 43.5541417,70.6789837 C45.9289295,69.0073019 48.2920544,67.3139604 50.9467518,66.093244 C51.9564253,66.8818779 52.7600544,67.8809993 53.6186657,68.8145864 C54.4867184,69.7587256 55.3936475,70.6623224 56.2755846,71.5920218 C56.5632693,71.8974786 56.86706,72.1862742 56.9736922,72.6133583 C56.2755846,73.1198612 55.5869183,73.6374717 54.8793693,74.1289794 C53.0955015,75.3691341 51.5898772,76.9475127 49.8498841,78.2393173" id="Fill-44" fill="#7494B1"></path>
                <path d="M110.42058,70.6321655 C112.072824,68.7266704 113.893346,66.9733483 115.492274,65.017314 C115.838828,64.5930068 116.020436,64.0326324 116.524162,63.7371723 C117.664905,63.9820931 118.591827,64.674647 119.574288,65.2305784 C121.233751,66.1713854 122.942088,67.0444365 124.405503,68.2973647 C123.79459,69.6591467 122.764367,70.7271348 121.834668,71.8517712 C120.778898,73.1308021 119.80699,74.495361 118.491304,75.5428001 C117.865951,75.2939917 117.388328,74.8185898 116.844614,74.4459325 C114.784169,73.0347221 112.700954,71.6684971 110.42058,70.6321655" id="Fill-46" fill="#7494B1"></path>
                <path d="M49.8498841,78.2393173 C51.5898772,76.9475127 53.0955015,75.3691341 54.8793693,74.1289794 C55.5869183,73.6374717 56.2755846,73.1198612 56.9736922,72.6133583 C58.0222421,73.34701 58.9080668,74.2589374 59.7816733,75.1853046 C57.9994717,76.3410421 56.4027657,77.7422558 54.7177549,79.0279512 C53.9241225,79.6333111 53.075508,80.1775796 52.3862864,80.9184512 C51.4826896,80.0803888 50.5030063,79.3150806 49.8498841,78.2393173" id="Fill-48" fill="#39C29C"></path>
                <path d="M98.6438319,81.5634093 C101.797812,83.2117653 104.741305,85.1700211 107.444875,87.4864945 C106.891721,88.4817283 106.206942,89.3753283 105.39776,90.1750697 C104.5858,89.085422 103.446724,88.3712084 102.377069,87.589239 C100.536553,86.2463398 98.6393889,84.9884132 96.6178202,83.9287557 C97.1637548,83.029602 97.8551979,82.2542971 98.6438319,81.5634093" id="Fill-50" fill="#39C29C"></path>
                <path d="M58.4332759,87.8125002 C61.7416508,86.1480383 65.0900127,84.5679935 68.5550037,83.2484201 C69.2075705,83.9159821 69.8140411,84.6229757 70.2738924,85.4427107 C67.1382395,86.7761685 63.8920667,87.8630394 60.8997008,89.5275013 C60.6358971,89.6752313 60.3193328,89.7452087 60.1266173,90.0106784 C59.4573893,89.3575562 58.9364466,88.5911373 58.4332759,87.8125002" id="Fill-52" fill="#39C29C"></path>
                <path d="M110.42058,70.6321655 C112.700954,71.6684971 114.784169,73.0347221 116.844614,74.4459325 C117.388328,74.8185898 117.865951,75.2939917 118.491304,75.5428001 C118.082548,76.3958577 117.330568,76.9351278 116.656897,77.545486 C114.130492,75.6422125 111.491345,73.9288775 108.584507,72.6559557 C109.023809,71.8245578 109.774122,71.2758463 110.42058,70.6321655" id="Fill-54" fill="#39C29C"></path>
                <path d="M50.9465296,66.0931884 C48.2923877,67.3139049 45.9292627,69.0072463 43.5539195,70.6789281 C43.4461766,70.7561254 43.381753,70.8927479 43.2973358,71.002157 C42.5303616,70.4284536 42.0605135,69.6209368 41.5806686,68.8211954 C44.1076294,67.0623196 46.7662144,65.5305925 49.5525358,64.2176836 C50.0329361,64.8313741 50.6166363,65.367312 50.9465296,66.0931884" id="Fill-56" fill="#39C29C"></path>
                <path d="M124.405337,68.2973092 C122.941921,67.0443809 121.233584,66.1713298 119.574676,65.2310782 C118.591661,64.6751469 117.664738,63.9820376 116.524551,63.7371168 C116.861109,62.9484829 117.281529,62.2081666 117.816911,61.5356063 C119.180359,62.4447568 120.732635,63.0156833 122.093306,63.9370521 C123.284033,64.7451242 124.509192,65.5021017 125.719356,66.2807389 C125.385575,67.0210551 125.027913,67.7452654 124.405337,68.2973092" id="Fill-58" fill="#39C29C"></path>
                <path d="M62.9847489,128.576211 C62.9847489,128.541777 62.9947457,128.346285 62.9830828,128.150237 C62.8364635,125.559964 64.439834,124.463651 66.2237018,123.846073 C68.2413828,123.149632 70.3934649,123.912163 71.5514238,125.643825 C72.8310102,127.557651 73.6640742,129.703624 73.8345746,131.967892 C73.9567573,133.580704 73.5346716,135.234058 73.3530636,136.869085 C73.3119658,137.228969 73.2758664,137.589963 73.2131089,137.947625 C73.0259472,138.996175 72.7271549,139.296078 71.6375071,139.256091 C68.2908113,139.133353 65.1918132,137.406689 63.844471,133.660123 C63.2735444,132.073413 62.9247683,130.438942 62.9847489,128.576211" id="Fill-62" fill="#9D6679"></path>
                <path d="M102.720181,129.352349 C102.691301,131.353924 102.264772,133.478237 101.173459,135.420942 C99.6250702,138.180606 97.1430948,139.427425 94.0685332,139.589039 C92.989993,139.646243 92.6462153,139.368555 92.5107035,138.381652 C92.2341263,136.366748 91.7759411,134.331295 91.8575813,132.323055 C91.9492184,130.118768 92.8339324,128.032775 94.0307677,126.136722 C94.6844452,125.102056 95.6008156,124.428385 96.8009832,124.106822 C98.7248057,123.590323 101.318967,124.546125 102.299761,126.26668 C102.800155,127.141397 102.685747,128.163844 102.720181,129.352349" id="Fill-64" fill="#9D6679"></path>
            </g>
        </g>
    </g>
</svg>