<?xml version="1.0" encoding="UTF-8"?>
<svg width="30px" height="30px" viewBox="0 0 30 30" version="1.1" xmlns="http://www.w3.org/2000/svg" xmlns:xlink="http://www.w3.org/1999/xlink">
    <!-- Generator: Sketch 48.1 (47250) - http://www.bohemiancoding.com/sketch -->
    <title>icon/密码 眼睛 关闭</title>
    <desc>Created with Sketch.</desc>
    <defs>
        <path d="M15,20 C17.9455187,20 20.6121853,18.3333333 23,15 C20.6121853,11.6666667 17.9455187,10 15,10 C12.0544813,10 9.38781467,11.6666667 7,15 C9.38781467,18.3333333 12.0544813,20 15,20 Z" id="path-1"></path>
    </defs>
    <g id="Symbols" stroke="none" stroke-width="1" fill="none" fill-rule="evenodd">
        <g id="icon/密码-眼睛-关闭">
            <mask id="mask-2" fill="white">
                <use xlink:href="#path-1"></use>
            </mask>
            <path stroke="#666666" d="M15,20.5 C11.8753417,20.5 9.0679164,18.7453592 6.59352942,15.2911729 L6.38494933,15 L6.59352942,14.7088271 C9.0679164,11.2546408 11.8753417,9.5 15,9.5 C18.1246583,9.5 20.9320836,11.2546408 23.4064706,14.7088271 L23.6150507,15 L23.4064706,15.2911729 C20.9320836,18.7453592 18.1246583,20.5 15,20.5 Z"></path>
            <circle id="Oval" fill="#A9A9A9" opacity="0.5" mask="url(#mask-2)" cx="15.5" cy="16.5" r="1.5"></circle>
            <path d="M7,9.5 L22.9808831,19.9768231" id="Path-30" stroke="#666666" stroke-linecap="round" stroke-linejoin="round"></path>
        </g>
    </g>
</svg>