<?xml version="1.0" encoding="UTF-8"?>
<svg width="30px" height="30px" viewBox="0 0 30 30" version="1.1" xmlns="http://www.w3.org/2000/svg" xmlns:xlink="http://www.w3.org/1999/xlink">
    <!-- Generator: Sketch 48.1 (47250) - http://www.bohemiancoding.com/sketch -->
    <title>icon/眼睛睁开</title>
    <desc>Created with Sketch.</desc>
    <defs>
        <rect id="path-1" x="42.0464213" y="216" width="285" height="164" rx="5"></rect>
        <filter x="-5.1%" y="-8.8%" width="110.9%" height="118.9%" filterUnits="objectBoundingBox" id="filter-2">
            <feOffset dx="1" dy="1" in="SourceAlpha" result="shadowOffsetOuter1"></feOffset>
            <feGaussianBlur stdDeviation="5" in="shadowOffsetOuter1" result="shadowBlurOuter1"></feGaussianBlur>
            <feColorMatrix values="0 0 0 0 0.670588235   0 0 0 0 0.670588235   0 0 0 0 0.670588235  0 0 0 0.5 0" type="matrix" in="shadowBlurOuter1"></feColorMatrix>
        </filter>
        <path d="M15,20 C17.9455187,20 20.6121853,18.3333333 23,15 C20.6121853,11.6666667 17.9455187,10 15,10 C12.0544813,10 9.38781467,11.6666667 7,15 C9.38781467,18.3333333 12.0544813,20 15,20 Z" id="path-3"></path>
    </defs>
    <g id="1.1登陆" stroke="none" stroke-width="1" fill="none" fill-rule="evenodd" transform="translate(-285.000000, -333.000000)">
        <rect id="Rectangle-2" fill="#666666" x="0" y="0" width="375" height="667"></rect>
        <g id="Rectangle-9">
            <use fill="black" fill-opacity="1" filter="url(#filter-2)" xlink:href="#path-1"></use>
            <use fill="#FFFFFF" fill-rule="evenodd" xlink:href="#path-1"></use>
        </g>
        <g id="Group-2" transform="translate(60.000000, 324.000000)">
            <g id="icon/密码-眼睛" transform="translate(225.000000, 9.000000)">
                <mask id="mask-4" fill="white">
                    <use xlink:href="#path-3"></use>
                </mask>
                <path stroke="#666666" stroke-width="1" d="M15,20.5 C11.8753417,20.5 9.0679164,18.7453592 6.59352942,15.2911729 L6.38494933,15 L6.59352942,14.7088271 C9.0679164,11.2546408 11.8753417,9.5 15,9.5 C18.1246583,9.5 20.9320836,11.2546408 23.4064706,14.7088271 L23.6150507,15 L23.4064706,15.2911729 C20.9320836,18.7453592 18.1246583,20.5 15,20.5 Z"></path>
                <circle id="Oval" fill="#A9A9A9" fill-rule="evenodd" mask="url(#mask-4)" cx="15.5" cy="16.5" r="1.5"></circle>
            </g>
            <g id="line" transform="translate(40.000000, 38.000000)" stroke="#F0F0F0" stroke-linecap="square">
                <path d="M0,0.5 L215,0.5" id="Line"></path>
            </g>
        </g>
    </g>
</svg>