<?xml version="1.0" encoding="UTF-8"?>
<svg width="52px" height="52px" viewBox="0 0 52 52" version="1.1" xmlns="http://www.w3.org/2000/svg" xmlns:xlink="http://www.w3.org/1999/xlink">
    <!-- Generator: Sketch 48.1 (47250) - http://www.bohemiancoding.com/sketch -->
    <title>微信@2x</title>
    <desc>Created with Sketch.</desc>
    <defs></defs>
    <g id="1.1登陆" stroke="none" stroke-width="1" fill="none" fill-rule="evenodd" transform="translate(-162.000000, -579.000000)">
        <g id="微信" transform="translate(162.000000, 579.000000)">
            <g>
                <path d="M25.92,0 L26.08,0 C40.3952207,-2.62966338e-15 52,11.6047793 52,25.92 L52,26.08 C52,40.3952207 40.3952207,52 26.08,52 L25.92,52 C11.6047793,52 1.75310892e-15,40.3952207 0,26.08 L0,25.92 C-1.75310892e-15,11.6047793 11.6047793,2.62966338e-15 25.92,0 Z" id="BG" fill="#52DA6E"></path>
                <path d="M38,30 C38.3284412,30 39,29.3284412 39,29 C39,27.6716029 38.3284412,27 38,27 C36.6715588,27 36,27.6716029 36,29 C36,29.3284412 36.6715588,30 38,30 L38,30 Z M29,30 C30.3284412,30 31,29.3284412 31,29 C31,27.6716029 30.3284412,27 29,27 C28.6715588,27 28,27.6716029 28,29 C28,29.3284412 28.6715588,30 29,30 L29,30 Z M26,21 C27.10455,21 28,20.1046 28,19 C28,17.89545 27.10455,17 26,17 C24.8954,17 24,17.89545 24,19 C24,20.1046 24.8954,21 26,21 L26,21 Z M16,21 C17.10455,21 18,20.1046 18,19 C18,17.89545 17.10455,17 16,17 C14.89545,17 14,17.89545 14,19 C14,20.1046 14.89545,21 16,21 L16,21 Z M38,40 C37.8662814,40.3250777 37.6334351,40.2996753 37,40 C36.194994,40.7285283 34.8756846,40.9273103 34,41 C27.1487405,40.9273103 22,36.6903096 22,31 C22,26.2370459 27.1487405,22 34,22 C39.8512595,22 45,26.2370459 45,31 C45,34.3506133 43.4291597,36.9355949 41,39 C40.7538603,38.8107117 40.6636507,39.0569479 41,39 L41,41 C41.4288942,41.9362537 41.1089142,42.1767392 41,42 L38,40 L38,40 Z M16,33 C17.4349184,33.4511235 18.9760892,33.6839395 21,34 C20.8274435,33.6839395 21.0709335,33.6785515 21,34 C21.01331,32.7800683 20.8531192,31.8439596 21,31 C20.8531192,25.1753795 26.4190046,20.5535155 33,21 C33.5248876,20.5535155 33.7633237,20.5591751 34,21 C32.9814122,15.1478557 27.3619643,11 21,11 C13.0810229,11 7,16.0779878 7,22 C7,25.7854008 8.83763656,28.8704166 12,31 C12.0117607,31.1463719 12.1368449,31.490389 12,32 L11,34 C11.2188388,34.927436 11.5870972,35.2096043 12,35 L15,33 C15.4002697,32.9756211 15.7138827,32.9367279 16,33 Z" id="WeChat" fill="#FFFFFF"></path>
            </g>
        </g>
    </g>
</svg>